<?xml version="1.0" encoding="iso-8859-1"?>
<!-- Uploaded to: SVG Repo, www.svgrepo.com, Generator: SVG Repo Mixer Tools -->
<!DOCTYPE svg PUBLIC "-//W3C//DTD SVG 1.1//EN" "http://www.w3.org/Graphics/SVG/1.1/DTD/svg11.dtd">
<svg fill="#000000" version="1.1" id="Capa_1" xmlns="http://www.w3.org/2000/svg" xmlns:xlink="http://www.w3.org/1999/xlink" 
	 viewBox="0 0 60 60" xml:space="preserve">
<g>
	<path d="M59,58h-1v-3h-4v-4h-2V36h-6v15h-2v4h-4v3h-1c-0.552,0-1,0.447-1,1s0.448,1,1,1h1h18h1c0.552,0,1-0.447,1-1
		S59.552,58,59,58z"/>
	<path d="M46,29.586V30h6v-6.414l3.028-3.028c2.554-2.553,3.962-5.946,3.971-9.558H59v-0.031V6V5.894
		c0-1.886-0.912-3.61-2.438-4.612C55.285,0.443,53.88,0,52.5,0C48.916,0,46,2.916,46,6.5v14.601L35.76,31.34
		c-0.931-5.531-4.698-10.105-9.76-12.162V18c0-3.309-2.691-6-6-6s-6,2.691-6,6v1.178c-4.112,1.671-7.365,5.003-8.946,9.159
		C1.934,30.12,0,33.392,0,37c0,3.155,1.494,6.087,4,7.975V48v2v10h6v-2h20v2h6V50v-2v-8.414L46,29.586z M53.614,19.144L52,20.758
		v-2.953c1.581-1.966,2.567-4.328,2.881-6.805h2.117C56.99,14.076,55.79,16.967,53.614,19.144z M52.5,6C52.776,6,53,6.225,53,6.5
		v2.812c0,1.617-0.351,3.204-1,4.667V6.5C52,6.225,52.224,6,52.5,6z M16,18.52V18c0-2.206,1.794-4,4-4s4,1.794,4,4v0.52
		c-0.081-0.021-0.163-0.036-0.244-0.056c-0.246-0.06-0.49-0.122-0.74-0.169c-0.395-0.077-0.791-0.135-1.189-0.182
		c-0.141-0.016-0.283-0.029-0.426-0.041C20.935,18.029,20.468,18,20,18s-0.935,0.029-1.402,0.071
		c-0.142,0.012-0.284,0.025-0.426,0.041c-0.397,0.047-0.794,0.105-1.189,0.182c-0.25,0.048-0.494,0.11-0.74,0.169
		C16.163,18.484,16.081,18.498,16,18.52z M2,37c0-2.092,0.808-4.049,2.204-5.512C4.18,31.632,4.17,31.776,4.151,31.92
		c-0.028,0.214-0.059,0.426-0.078,0.643C4.029,33.041,4,33.52,4,34v8.29C2.725,40.846,2,38.974,2,37z M6,58v-8h2v8H6z M20,23
		c5.514,0,10,4.935,10,11s-4.486,11-10,11s-10-4.935-10-11S14.486,23,20,23z M27,55H13c-0.552,0-1-0.447-1-1s0.448-1,1-1h14
		c0.552,0,1,0.447,1,1S27.552,55,27,55z M27,51H13c-0.552,0-1-0.447-1-1s0.448-1,1-1h14c0.552,0,1,0.447,1,1S27.552,51,27,51z
		 M34,58h-2v-8h2V58z"/>
	<path d="M20,43c4.411,0,8-4.037,8-9s-3.589-9-8-9s-8,4.037-8,9S15.589,43,20,43z M20,27c2.206,0,4,1.794,4,4s-1.794,4-4,4
		s-4-1.794-4-4S17.794,27,20,27z"/>
	<rect x="46" y="32" width="6" height="2"/>
</g>
</svg>