<svg xmlns="http://www.w3.org/2000/svg" viewBox="0 0 48 48"><defs><style>.cls-1{fill:#f2f6fc;}.cls-2{fill:#cdd2e1;}.cls-3{fill:#ff8257;}.cls-4{fill:#f05e3a;}.cls-5{fill:#190402;}</style></defs><title>03-service</title><g id="_03-service" data-name="03-service"><path class="cls-1" d="M38,35a5,5,0,0,1,0,10Z"/><path class="cls-1" d="M6,35V45A5,5,0,0,1,6,35Z"/><path class="cls-2" d="M32,33h4a2.006,2.006,0,0,1,2,2V45a2.006,2.006,0,0,1-2,2H32a2.006,2.006,0,0,1-2-2V35A2.006,2.006,0,0,1,32,33Z"/><path class="cls-2" d="M8,33h4a2.006,2.006,0,0,1,2,2V45a2.006,2.006,0,0,1-2,2H8a2.006,2.006,0,0,1-2-2V35A2.006,2.006,0,0,1,8,33Z"/><path class="cls-3" d="M36,31v2H32V31a10,10,0,0,0-20,0v2H8V31a14,14,0,1,1,28,0Z"/><path class="cls-2" d="M47,14V10H43.74a8.285,8.285,0,0,0-.85-2.06l2.3-2.3L42.36,2.81l-2.3,2.3A8.285,8.285,0,0,0,38,4.26V1H34V4.26a8.285,8.285,0,0,0-2.06.85l-2.3-2.3L26.81,5.64l2.3,2.3A8.285,8.285,0,0,0,28.26,10H25v4h3.26a8.285,8.285,0,0,0,.85,2.06l-2.3,2.3,2.83,2.83,2.3-2.3a8.285,8.285,0,0,0,2.06.85V23h4V19.74a8.285,8.285,0,0,0,2.06-.85l2.3,2.3,2.83-2.83-2.3-2.3A8.285,8.285,0,0,0,43.74,14ZM36,16a4,4,0,1,1,4-4A4,4,0,0,1,36,16Z"/><path class="cls-4" d="M8,31v2h4V31a10.007,10.007,0,0,1,.051-1h-4C8.027,30.332,8,30.662,8,31Z"/><path class="cls-4" d="M31.949,30A10.007,10.007,0,0,1,32,31v2h4V31c0-.338-.027-.668-.051-1Z"/><path class="cls-5" d="M38.836,34.065A2.994,2.994,0,0,0,37,32.184V31H35v1H33V31a11,11,0,0,0-22,0v1H9V31A13.015,13.015,0,0,1,22,18V16A15.017,15.017,0,0,0,7,31v1.184a2.994,2.994,0,0,0-1.836,1.881,5.993,5.993,0,0,0,0,11.87A2.993,2.993,0,0,0,8,48h4a3,3,0,0,0,3-3V35a3,3,0,0,0-2-2.816V31a9,9,0,0,1,18,0v1.184A3,3,0,0,0,29,35V45a3,3,0,0,0,3,3h4a2.993,2.993,0,0,0,2.836-2.065,5.993,5.993,0,0,0,0-11.87ZM2,40a4,4,0,0,1,3-3.858v7.716A4,4,0,0,1,2,40Zm11,5a1,1,0,0,1-1,1H11V36H9V46H8a1,1,0,0,1-1-1V35a1,1,0,0,1,1-1h4a1,1,0,0,1,1,1Zm24,0a1,1,0,0,1-1,1H35V36H33V46H32a1,1,0,0,1-1-1V35a1,1,0,0,1,1-1h4a1,1,0,0,1,1,1Zm2-1.142V36.142a3.981,3.981,0,0,1,0,7.716Z"/><path class="cls-5" d="M47,9H44.478q-.158-.442-.361-.873l1.78-1.78a1,1,0,0,0,0-1.414L43.067,2.1a1,1,0,0,0-1.414,0l-1.78,1.78q-.431-.2-.873-.361V1a1,1,0,0,0-1-1H34a1,1,0,0,0-1,1V3.522q-.443.158-.873.361L30.347,2.1a1,1,0,0,0-1.414,0L26.1,4.933a1,1,0,0,0,0,1.414l1.78,1.78q-.2.43-.361.873H25a1,1,0,0,0-1,1v4a1,1,0,0,0,1,1h2.522q.157.442.361.873l-1.78,1.78a1,1,0,0,0,0,1.414l2.83,2.83a1,1,0,0,0,1.414,0l1.78-1.78q.431.2.873.361V23a1,1,0,0,0,1,1h4a1,1,0,0,0,1-1V20.478q.443-.157.873-.361l1.78,1.78a1,1,0,0,0,1.414,0l2.83-2.83a1,1,0,0,0,0-1.414l-1.78-1.78q.2-.43.361-.873H47a1,1,0,0,0,1-1V10A1,1,0,0,0,47,9Zm-1,4H43.74a1,1,0,0,0-.968.748,7.273,7.273,0,0,1-.748,1.812,1,1,0,0,0,.159,1.207l1.593,1.593L42.36,19.776l-1.593-1.593a1,1,0,0,0-1.207-.159,7.273,7.273,0,0,1-1.812.748A1,1,0,0,0,37,19.74V22H35V19.74a1,1,0,0,0-.748-.968,7.273,7.273,0,0,1-1.812-.748,1,1,0,0,0-1.207.159L29.64,19.776,28.224,18.36l1.593-1.593a1,1,0,0,0,.159-1.207,7.273,7.273,0,0,1-.748-1.812A1,1,0,0,0,28.26,13H26V11h2.26a1,1,0,0,0,.968-.748,7.273,7.273,0,0,1,.748-1.812,1,1,0,0,0-.159-1.207L28.224,5.64,29.64,4.224l1.593,1.593a1,1,0,0,0,1.207.159,7.273,7.273,0,0,1,1.812-.748A1,1,0,0,0,35,4.26V2h2V4.26a1,1,0,0,0,.748.968,7.273,7.273,0,0,1,1.812.748,1,1,0,0,0,1.207-.159L42.36,4.224,43.776,5.64,42.183,7.233a1,1,0,0,0-.159,1.207,7.273,7.273,0,0,1,.748,1.812A1,1,0,0,0,43.74,11H46Z"/><path class="cls-5" d="M36,15a3,3,0,0,1,0-6V7a5,5,0,1,0,5,5H39A3,3,0,0,1,36,15Z"/><rect class="cls-5" x="9" y="3" width="12" height="2"/><rect class="cls-5" x="5" y="3" width="2" height="2"/><rect class="cls-5" x="11" y="7" width="10" height="2"/><rect class="cls-5" x="7" y="7" width="2" height="2"/><rect class="cls-5" x="5" y="11" width="16" height="2"/><rect class="cls-5" x="1" y="11" width="2" height="2"/></g></svg>